<svg width="428" height="365" viewBox="0 0 428 365" fill="none" xmlns="http://www.w3.org/2000/svg">
<path d="M387.867 93.4667C394.245 75.3333 400.667 40.1333 383.579 0.666656C335.579 0.666656 295.088 34.8 288.667 41.2C265.2 35.8667 239.579 33.7547 214 33.7547C187.333 33.7547 161.755 36.912 137.2 42.2453C104.133 8.13332 60.432 0.666656 43.3333 0.666656C43.3333 0.666656 33.7547 19.8667 33.7547 54C33.7547 75.3333 39.088 88.1333 42.2453 94.5333C16.6667 121.2 0.666656 157.467 0.666656 204.432C0.666656 323.888 76.4213 364.432 214 364.432C351.579 364.432 427.333 323.888 427.333 204.432C427.333 155.344 412.421 119.099 387.867 93.4667V93.4667Z" fill="#3C3C3C"/>
<path d="M214 342C126.533 342 54 327.088 54 246C54 215.088 71.088 198 82.8 187.333C109.467 163.867 154.245 174.533 214 174.533C257.755 174.533 295.088 167.088 324.912 176.667C339.147 181.24 351.567 190.208 360.387 202.282C369.207 214.356 373.972 228.914 374 243.867C374 328.133 331.333 342 214 342Z" fill="#D3D4D5"/>
<path d="M224.667 288.667C224.667 295.088 220.421 299.333 214 299.333C207.579 299.333 203.333 295.088 203.333 288.667C203.333 282.245 207.579 278 214 278C220.421 278 224.667 282.245 224.667 288.667ZM240.667 315.333C242.8 313.2 242.8 310 240.667 307.867C238.533 305.755 235.333 305.755 233.2 307.867C223.579 317.467 205.467 317.467 195.867 307.867C193.755 305.755 190.533 305.755 188.421 307.867C186.245 310 186.245 313.2 188.421 315.333C195.877 322.8 204.421 326 215.088 326C225.755 326 233.211 321.755 240.667 315.333Z" fill="#3C3C3C"/>
<path fill-rule="evenodd" clip-rule="evenodd" d="M106.772 205.352L160.582 244.251C159.404 269.22 145.98 288.667 128.667 288.667C110.533 288.667 96.6667 267.333 96.6667 240.667C96.6667 226.645 100.5 214.098 106.772 205.352ZM299.333 288.667C283.504 288.667 270.927 272.411 267.985 250.542L324.118 209.964C328.657 218.264 331.333 228.951 331.333 240.667C331.333 267.333 317.467 288.667 299.333 288.667Z" fill="#E7503B"/>
<path d="M194 331L189 312L200 314.5L194 331Z" fill="#3C3C3C"/>
<path d="M235 331L240 312L229 314.5L235 331Z" fill="#3C3C3C"/>
</svg>
